<svg width="184" height="172" viewBox="0 0 184 172" fill="none" xmlns="http://www.w3.org/2000/svg">
<g filter="url(#filter0_d_48_147)">
<path d="M58.1882 116.82L105.988 46.8198H117.888L70.0882 116.82H58.1882ZM64.2882 84.6198C60.8882 84.6198 57.8882 83.8532 55.2882 82.3198C52.6882 80.7198 50.6215 78.4865 49.0882 75.6198C47.6215 72.6865 46.8882 69.2532 46.8882 65.3198C46.8882 61.3865 47.6215 57.9865 49.0882 55.1198C50.6215 52.2532 52.6882 50.0198 55.2882 48.4198C57.8882 46.8198 60.8882 46.0198 64.2882 46.0198C67.6882 46.0198 70.6882 46.8198 73.2882 48.4198C75.8882 50.0198 77.9215 52.2532 79.3882 55.1198C80.8549 57.9865 81.5882 61.3865 81.5882 65.3198C81.5882 69.2532 80.8549 72.6865 79.3882 75.6198C77.9215 78.4865 75.8882 80.7198 73.2882 82.3198C70.6882 83.8532 67.6882 84.6198 64.2882 84.6198ZM64.2882 76.4198C66.4882 76.4198 68.2549 75.5198 69.5882 73.7198C70.9215 71.8532 71.5882 69.0532 71.5882 65.3198C71.5882 61.5865 70.9215 58.8198 69.5882 57.0198C68.2549 55.1532 66.4882 54.2198 64.2882 54.2198C62.1549 54.2198 60.3882 55.1532 58.9882 57.0198C57.6549 58.8198 56.9882 61.5865 56.9882 65.3198C56.9882 68.9865 57.6549 71.7532 58.9882 73.6198C60.3882 75.4865 62.1549 76.4198 64.2882 76.4198ZM111.788 117.62C108.455 117.62 105.455 116.853 102.788 115.32C100.188 113.72 98.1549 111.486 96.6882 108.62C95.2215 105.686 94.4882 102.253 94.4882 98.3198C94.4882 94.3865 95.2215 90.9865 96.6882 88.1198C98.1549 85.2532 100.188 83.0198 102.788 81.4198C105.455 79.8198 108.455 79.0198 111.788 79.0198C115.255 79.0198 118.288 79.8198 120.888 81.4198C123.488 83.0198 125.522 85.2532 126.988 88.1198C128.455 90.9865 129.188 94.3865 129.188 98.3198C129.188 102.253 128.455 105.686 126.988 108.62C125.522 111.486 123.488 113.72 120.888 115.32C118.288 116.853 115.255 117.62 111.788 117.62ZM111.788 109.42C113.988 109.42 115.755 108.52 117.088 106.72C118.422 104.853 119.088 102.053 119.088 98.3198C119.088 94.6532 118.422 91.8865 117.088 90.0198C115.755 88.1532 113.988 87.2198 111.788 87.2198C109.655 87.2198 107.888 88.1532 106.488 90.0198C105.155 91.8198 104.488 94.5865 104.488 98.3198C104.488 102.053 105.155 104.853 106.488 106.72C107.888 108.52 109.655 109.42 111.788 109.42Z" fill="white"/>
</g>
<defs>
<filter id="filter0_d_48_147" x="0.888184" y="0.0197754" width="182.3" height="171.6" filterUnits="userSpaceOnUse" color-interpolation-filters="sRGB">
<feFlood flood-opacity="0" result="BackgroundImageFix"/>
<feColorMatrix in="SourceAlpha" type="matrix" values="0 0 0 0 0 0 0 0 0 0 0 0 0 0 0 0 0 0 127 0" result="hardAlpha"/>
<feOffset dx="4" dy="4"/>
<feGaussianBlur stdDeviation="25"/>
<feComposite in2="hardAlpha" operator="out"/>
<feColorMatrix type="matrix" values="0 0 0 0 0 0 0 0 0 0 0 0 0 0 0 0 0 0 0.25 0"/>
<feBlend mode="normal" in2="BackgroundImageFix" result="effect1_dropShadow_48_147"/>
<feBlend mode="normal" in="SourceGraphic" in2="effect1_dropShadow_48_147" result="shape"/>
</filter>
</defs>
</svg>
