<svg width="69" height="69" viewBox="0 0 69 69" fill="none" xmlns="http://www.w3.org/2000/svg">
<g id="Group 14">
<circle id="Ellipse 19" cx="34.5" cy="34.5" r="34.5" fill="#DB3726"/>
<g id="Group 13">
<path id="Vector" d="M34.5 14.7856C21.8178 14.7856 11.5 23.0403 11.5 33.1856C11.5 39.874 15.8654 45.8701 23 49.1338V60.7856L35.282 51.5741C47.6031 51.2452 57.5 43.1216 57.5 33.1856C57.5 23.0403 47.1822 14.7856 34.5 14.7856ZM34.5 46.9856H33.7341L27.6 51.5856V46.0265L26.1257 45.4584C19.941 43.0779 16.1 38.3744 16.1 33.1856C16.1 25.5749 24.3547 19.3856 34.5 19.3856C44.6453 19.3856 52.9 25.5749 52.9 33.1856C52.9 40.7963 44.6453 46.9856 34.5 46.9856Z" fill="white"/>
<path id="Vector_2" d="M23 26.2856H46V30.8856H23V26.2856ZM23 35.4856H39.1V40.0856H23V35.4856Z" fill="white"/>
</g>
</g>
</svg>
